<svg width="24" height="24" viewBox="0 0 24 24" fill="none" xmlns="http://www.w3.org/2000/svg">
<circle opacity="0.852" cx="12" cy="12" r="10.5" fill="url(#paint0_radial_269_8712)"/>
<path d="M5.06353 19.9C5.0492 19.8895 5.03452 19.8762 5.01983 19.8601C4.74804 19.6128 4.30534 19.2228 3.84272 18.6334C3.44318 17.7667 3.66965 16.311 4.65289 14.2557C6.04018 11.3557 8.25984 8.41133 9.16991 7.36691C8.91095 7.07802 8.10891 6.28693 6.97244 5.43361C5.83597 4.58029 5.00804 4.49289 4.71948 4.54474C4.98584 4.25585 5.60734 3.71142 6.12897 3.34476C7.74488 2.54477 10.7311 3.8966 12.0111 4.66696V9.96686C8.74816 12.4779 5.72943 16.3556 5.11902 17.8667C4.65314 19.02 4.83731 19.6596 5.01983 19.8601C5.03493 19.8738 5.04951 19.8871 5.06353 19.9Z" fill="url(#paint1_linear_269_8712)"/>
<path d="M5.06353 19.8998C5.0492 19.8893 5.03453 19.876 5.01984 19.8599C4.74804 19.6126 4.30534 19.2226 3.84272 18.6331C3.44318 17.7665 3.66965 16.3108 4.65289 14.2554C6.2635 10.8887 9.16991 7.36667 9.16991 7.36667C9.16991 7.36667 9.68885 8.65532 10.8666 10.8887C7.83329 13.5775 5.72943 16.3554 5.11902 17.8665C4.65313 19.0198 4.83731 19.6594 5.01984 19.8599C5.03494 19.8736 5.04951 19.8869 5.06353 19.8998Z" fill="url(#paint2_linear_269_8712)"/>
<path d="M18.9587 19.9C18.973 19.8895 18.9877 19.8762 19.0024 19.8601C19.2742 19.6128 19.7169 19.2228 20.1795 18.6334C20.579 17.7667 20.3526 16.311 19.3693 14.2557C17.982 11.3557 15.7624 8.41133 14.8523 7.36691C15.1113 7.07802 15.9133 6.28693 17.0498 5.43361C18.1862 4.58029 19.0142 4.49289 19.3027 4.54474C19.0364 4.25585 18.4149 3.71142 17.8932 3.34476C16.2773 2.54477 13.2912 3.8966 12.0111 4.66696V9.96686C15.2741 12.4779 18.2928 16.3556 18.9032 17.8667C19.3691 19.02 19.1849 19.6596 19.0024 19.8601C18.9873 19.8738 18.9727 19.8871 18.9587 19.9Z" fill="url(#paint3_linear_269_8712)"/>
<path d="M18.9587 19.8998C18.973 19.8893 18.9877 19.876 19.0024 19.8599C19.2742 19.6126 19.7169 19.2226 20.1795 18.6331C20.579 17.7665 20.3526 16.3108 19.3693 14.2554C17.7587 10.8887 14.8523 7.36667 14.8523 7.36667C14.8523 7.36667 14.3334 8.65532 13.1556 10.8887C16.1889 13.5775 18.2928 16.3554 18.9032 17.8665C19.3691 19.0198 19.1849 19.6594 19.0024 19.8599C18.9873 19.8736 18.9727 19.8869 18.9587 19.8998Z" fill="url(#paint4_linear_269_8712)"/>
<defs>
<radialGradient id="paint0_radial_269_8712" cx="0" cy="0" r="1" gradientUnits="userSpaceOnUse" gradientTransform="translate(12 10.875) rotate(90.0548) scale(11.625)">
<stop stop-color="#FAFAFA"/>
<stop offset="0.499976" stop-color="#EFEFEF"/>
<stop offset="0.828794" stop-color="#C0BEC0"/>
<stop offset="1" stop-color="#879288"/>
</radialGradient>
<linearGradient id="paint1_linear_269_8712" x1="9.74441" y1="3.54445" x2="9.92218" y2="9.58889" gradientUnits="userSpaceOnUse">
<stop stop-color="#008B00"/>
<stop offset="1" stop-color="#6CC329"/>
</linearGradient>
<linearGradient id="paint2_linear_269_8712" x1="7.61107" y1="9.5" x2="9.65552" y2="12.3" gradientUnits="userSpaceOnUse">
<stop stop-color="#008C00"/>
<stop offset="1" stop-color="#48BF21"/>
</linearGradient>
<linearGradient id="paint3_linear_269_8712" x1="14.2778" y1="3.54445" x2="14.1" y2="9.58889" gradientUnits="userSpaceOnUse">
<stop stop-color="#008B00"/>
<stop offset="1" stop-color="#6CC329"/>
</linearGradient>
<linearGradient id="paint4_linear_269_8712" x1="16.4111" y1="9.5" x2="14.3667" y2="12.3" gradientUnits="userSpaceOnUse">
<stop stop-color="#008C00"/>
<stop offset="1" stop-color="#48BF21"/>
</linearGradient>
</defs>
</svg>
